<svg version="1.1" viewBox="0.0 0.0 960.0 540.0" fill="none" stroke="none" stroke-linecap="square" stroke-miterlimit="10" xmlns:xlink="http://www.w3.org/1999/xlink" xmlns="http://www.w3.org/2000/svg"><clipPath id="p.0"><path d="m0 0l960.0 0l0 540.0l-960.0 0l0 -540.0z" clip-rule="nonzero"/></clipPath><g clip-path="url(#p.0)"><path fill="#ffffff" d="m0 0l960.0 0l0 540.0l-960.0 0z" fill-rule="evenodd"/><path fill="#000000" d="m261.91663 288.90262l0 0c-10.454269 -120.44156 78.70804 -226.55359 199.1496 -237.00787l0 0c57.838074 -5.020317 115.301575 13.1410675 159.7492 50.48886c44.44757 37.3478 72.23834 90.82267 77.25867 148.66074l0 0c10.454285 120.441574 -78.70801 226.5536 -199.1496 237.00789l0 0c-120.44156 10.454254 -226.55359 -78.70807 -237.00787 -199.14963zm29.357758 -2.5482178l0 0c9.046936 104.22769 100.874146 181.387 205.10187 172.34006c104.22775 -9.0469055 181.387 -100.874146 172.34012 -205.10185l0 0c-9.046936 -104.22772 -100.87421 -181.38701 -205.1019 -172.34009l0 0c-104.22772 9.046921 -181.387 100.87415 -172.34009 205.1019z" fill-rule="evenodd"/><path fill="#000000" d="m305.86877 359.70056c10.168396 -24.523193 42.019684 -111.400696 61.010498 -147.1391c18.990814 -35.73842 34.09317 -49.795715 52.934387 -67.29135c18.841187 -17.49562 45.458862 -32.748024 60.112854 -37.682404c14.653961 -4.934387 28.708221 2.991684 27.811005 8.076111c-0.8971863 5.084427 -20.334625 12.262466 -33.194214 22.43045c-12.859589 10.167969 -33.418182 25.851273 -43.963257 38.577423c-10.545044 12.726166 -16.548553 27.920822 -19.307068 37.779526c-2.758545 9.858704 -2.9431458 17.965012 2.75589 21.372711c5.6990356 3.4076996 22.54898 2.9505615 31.438324 -0.9265137c8.889313 -3.8770752 14.210846 -17.716095 21.897644 -22.335953c7.6867676 -4.619858 20.036285 -7.4763794 24.223083 -5.383209c4.186798 2.0931854 6.5450745 8.846893 0.89764404 17.94226c-5.6474304 9.095367 -21.762909 25.54506 -34.782166 36.629913c-13.019226 11.084869 -29.867432 20.755463 -43.333313 29.879272c-13.465881 9.12381 -27.602814 13.219147 -37.461945 24.863525c-9.859161 11.644348 -17.03064 27.1846 -21.692932 45.002625c-4.6622925 17.818024 -5.234009 51.58792 -6.2808228 61.905518" fill-rule="evenodd"/><path fill="#000000" d="m651.77954 177.73206c-10.168457 24.523193 -42.019714 111.400696 -61.010498 147.1391c-18.990845 35.738434 -34.0932 49.795715 -52.934387 67.29135c-18.841248 17.495636 -45.458893 32.748047 -60.112885 37.682404c-14.653961 4.934387 -28.708221 -2.9916687 -27.811005 -8.076111c0.8971863 -5.0844116 20.334625 -12.262451 33.194214 -22.43045c12.859589 -10.167969 33.418213 -25.851257 43.963257 -38.577423c10.545044 -12.726166 16.548584 -27.920807 19.307068 -37.77951c2.758545 -9.858704 2.9431763 -17.965027 -2.7558594 -21.372711c-5.6990356 -3.4077148 -22.549011 -2.9505615 -31.438354 0.9265137c-8.889313 3.8770752 -14.210846 17.716095 -21.897614 22.335938c-7.686798 4.619873 -20.036316 7.4763794 -24.223114 5.383209c-4.186798 -2.0931702 -6.545044 -8.846893 -0.89764404 -17.94226c5.6474304 -9.095367 21.762909 -25.545044 34.782166 -36.629913c13.019226 -11.084869 29.867432 -20.755463 43.333313 -29.879257c13.465881 -9.12381 27.602844 -13.219162 37.461975 -24.863525c9.859131 -11.644348 17.030579 -27.1846 21.692871 -45.002625c4.6622925 -17.818024 5.23407 -51.58792 6.280884 -61.90551" fill-rule="evenodd"/></g></svg>